<svg version="1.1" viewBox="0.0 0.0 864.0 864.0" fill="none" stroke="none" stroke-linecap="square" stroke-miterlimit="10" xmlns:xlink="http://www.w3.org/1999/xlink" xmlns="http://www.w3.org/2000/svg"><clipPath id="p.0"><path d="m0 0l864.0 0l0 864.0l-864.0 0l0 -864.0z" clip-rule="nonzero"/></clipPath><g clip-path="url(#p.0)"><path fill="#000000" fill-opacity="0.0" d="m0 0l864.0 0l0 864.0l-864.0 0z" fill-rule="evenodd"/><path fill="#000000" fill-opacity="0.0" d="m58.830853 248.95325l92.04724 -184.09439l240.88188 0l92.04724 184.09439l-92.04724 184.09439l-240.88188 0z" fill-rule="evenodd"/><path stroke="#000000" stroke-width="12.0" stroke-linejoin="round" stroke-linecap="butt" d="m58.830853 248.95325l92.04724 -184.09439l240.88188 0l92.04724 184.09439l-92.04724 184.09439l-240.88188 0z" fill-rule="evenodd"/><path fill="#000000" fill-opacity="0.0" d="m392.04105 432.0144l92.04724 -184.0944l240.88187 0l92.0473 184.0944l-92.0473 184.09442l-240.88187 0z" fill-rule="evenodd"/><path stroke="#000000" stroke-width="12.0" stroke-linejoin="round" stroke-linecap="butt" d="m392.04105 432.0144l92.04724 -184.0944l240.88187 0l92.0473 184.0944l-92.0473 184.09442l-240.88187 0z" fill-rule="evenodd"/><path fill="#000000" fill-opacity="0.0" d="m58.829544 617.12915l92.04724 -184.09439l240.88188 0l92.04724 184.09439l-92.04724 184.09442l-240.88188 0z" fill-rule="evenodd"/><path stroke="#000000" stroke-width="12.0" stroke-linejoin="round" stroke-linecap="butt" d="m58.829544 617.12915l92.04724 -184.09439l240.88188 0l92.04724 184.09439l-92.04724 184.09442l-240.88188 0z" fill-rule="evenodd"/><path fill="#ff00ff" d="m682.5797 617.11334l0 0c0 -23.66565 18.23291 -42.850403 40.724365 -42.850403l0 0c10.800781 0 21.15924 4.5145874 28.796509 12.550598c7.637329 8.036011 11.9279175 18.93518 11.9279175 30.299805l0 0c0 23.665588 -18.23291 42.850403 -40.724426 42.850403l0 0c-22.491455 0 -40.724365 -19.184814 -40.724365 -42.850403z" fill-rule="evenodd"/><path stroke="#000000" stroke-width="12.0" stroke-linejoin="round" stroke-linecap="butt" d="m682.5797 617.11334l0 0c0 -23.66565 18.23291 -42.850403 40.724365 -42.850403l0 0c10.800781 0 21.15924 4.5145874 28.796509 12.550598c7.637329 8.036011 11.9279175 18.93518 11.9279175 30.299805l0 0c0 23.665588 -18.23291 42.850403 -40.724426 42.850403l0 0c-22.491455 0 -40.724365 -19.184814 -40.724365 -42.850403z" fill-rule="evenodd"/><path fill="#ff00ff" d="m349.70224 431.99954l0 0c0 -23.665619 18.23294 -42.850403 40.724396 -42.850403l0 0c10.800781 0 21.15921 4.5145874 28.796509 12.550598c7.6372986 8.036011 11.9279175 18.93518 11.9279175 30.299805l0 0c0 23.665619 -18.23294 42.850403 -40.724426 42.850403l0 0c-22.491455 0 -40.724396 -19.184784 -40.724396 -42.850403z" fill-rule="evenodd"/><path stroke="#000000" stroke-width="12.0" stroke-linejoin="round" stroke-linecap="butt" d="m349.70224 431.99954l0 0c0 -23.665619 18.23294 -42.850403 40.724396 -42.850403l0 0c10.800781 0 21.15921 4.5145874 28.796509 12.550598c7.6372986 8.036011 11.9279175 18.93518 11.9279175 30.299805l0 0c0 23.665619 -18.23294 42.850403 -40.724426 42.850403l0 0c-22.491455 0 -40.724396 -19.184784 -40.724396 -42.850403z" fill-rule="evenodd"/><path fill="#ff00ff" d="m682.57996 248.95328l0 0c0 -23.665619 18.232971 -42.850388 40.724426 -42.850388l0 0c10.800781 0 21.15918 4.514572 28.796509 12.550583c7.637329 8.036011 11.9279175 18.93518 11.9279175 30.299805l0 0c0 23.665619 -18.232971 42.850403 -40.724426 42.850403l0 0c-22.491455 0 -40.724426 -19.184784 -40.724426 -42.850403z" fill-rule="evenodd"/><path stroke="#000000" stroke-width="12.0" stroke-linejoin="round" stroke-linecap="butt" d="m682.57996 248.95328l0 0c0 -23.665619 18.232971 -42.850388 40.724426 -42.850388l0 0c10.800781 0 21.15918 4.514572 28.796509 12.550583c7.637329 8.036011 11.9279175 18.93518 11.9279175 30.299805l0 0c0 23.665619 -18.232971 42.850403 -40.724426 42.850403l0 0c-22.491455 0 -40.724426 -19.184784 -40.724426 -42.850403z" fill-rule="evenodd"/><path fill="#ff00ff" d="m349.70288 804.3556l0 0c0 -23.66565 18.23294 -42.850403 40.724426 -42.850403l0 0c10.800781 0 21.15918 4.5145874 28.796509 12.550598c7.6372986 8.036011 11.927887 18.93512 11.927887 30.299805l0 0c0 23.665588 -18.23294 42.85034 -40.724396 42.85034l0 0c-22.491486 0 -40.724426 -19.184753 -40.724426 -42.85034z" fill-rule="evenodd"/><path stroke="#000000" stroke-width="12.0" stroke-linejoin="round" stroke-linecap="butt" d="m349.70288 804.3556l0 0c0 -23.66565 18.23294 -42.850403 40.724426 -42.850403l0 0c10.800781 0 21.15918 4.5145874 28.796509 12.550598c7.6372986 8.036011 11.927887 18.93512 11.927887 30.299805l0 0c0 23.665588 -18.23294 42.85034 -40.724396 42.85034l0 0c-22.491486 0 -40.724426 -19.184753 -40.724426 -42.85034z" fill-rule="evenodd"/><path fill="#ff00ff" d="m18.605574 248.95306l0 0c0 -23.665619 18.232939 -42.850403 40.72441 -42.850403l0 0c10.800785 0 21.159199 4.5145874 28.796505 12.550598c7.637306 8.036011 11.927902 18.935165 11.927902 30.299805l0 0c0 23.665619 -18.23294 42.850403 -40.724407 42.850403l0 0c-22.49147 0 -40.72441 -19.184784 -40.72441 -42.850403z" fill-rule="evenodd"/><path stroke="#000000" stroke-width="12.0" stroke-linejoin="round" stroke-linecap="butt" d="m18.605574 248.95306l0 0c0 -23.665619 18.232939 -42.850403 40.72441 -42.850403l0 0c10.800785 0 21.159199 4.5145874 28.796505 12.550598c7.637306 8.036011 11.927902 18.935165 11.927902 30.299805l0 0c0 23.665619 -18.23294 42.850403 -40.724407 42.850403l0 0c-22.49147 0 -40.72441 -19.184784 -40.72441 -42.850403z" fill-rule="evenodd"/><path fill="#ff00ff" d="m18.607601 617.1137l0 0c0 -23.66565 18.23294 -42.850403 40.72441 -42.850403l0 0c10.800785 0 21.159199 4.5145874 28.796505 12.550598c7.637306 8.036011 11.927902 18.93518 11.927902 30.299805l0 0c0 23.665588 -18.23294 42.85034 -40.724407 42.85034l0 0c-22.49147 0 -40.72441 -19.184753 -40.72441 -42.85034z" fill-rule="evenodd"/><path stroke="#000000" stroke-width="12.0" stroke-linejoin="round" stroke-linecap="butt" d="m18.607601 617.1137l0 0c0 -23.66565 18.23294 -42.850403 40.72441 -42.850403l0 0c10.800785 0 21.159199 4.5145874 28.796505 12.550598c7.637306 8.036011 11.927902 18.93518 11.927902 30.299805l0 0c0 23.665588 -18.23294 42.85034 -40.724407 42.85034l0 0c-22.49147 0 -40.72441 -19.184753 -40.72441 -42.85034z" fill-rule="evenodd"/><path fill="#ff00ff" d="m349.70264 59.67196l0 0c0 -23.665619 18.23294 -42.850395 40.724396 -42.850395l0 0c10.800781 0 21.15921 4.5145817 28.796509 12.5505905c7.6372986 8.036007 11.9279175 18.935173 11.9279175 30.299805l0 0c0 23.665619 -18.23294 42.850395 -40.724426 42.850395l0 0c-22.491455 0 -40.724396 -19.184776 -40.724396 -42.850395z" fill-rule="evenodd"/><path stroke="#000000" stroke-width="12.0" stroke-linejoin="round" stroke-linecap="butt" d="m349.70264 59.67196l0 0c0 -23.665619 18.23294 -42.850395 40.724396 -42.850395l0 0c10.800781 0 21.15921 4.5145817 28.796509 12.5505905c7.6372986 8.036007 11.9279175 18.935173 11.9279175 30.299805l0 0c0 23.665619 -18.23294 42.850395 -40.724426 42.850395l0 0c-22.491455 0 -40.724396 -19.184776 -40.724396 -42.850395z" fill-rule="evenodd"/><path fill="#00ffff" d="m438.8011 617.11383l0 0c0 -23.665588 18.23294 -42.850403 40.724396 -42.850403l0 0c10.800781 0 21.15921 4.5145874 28.796509 12.550598c7.6372986 8.036011 11.927887 18.93518 11.927887 30.299805l0 0c0 23.66565 -18.23291 42.850403 -40.724396 42.850403l0 0c-22.491455 0 -40.724396 -19.184753 -40.724396 -42.850403z" fill-rule="evenodd"/><path stroke="#000000" stroke-width="12.0" stroke-linejoin="round" stroke-linecap="butt" d="m438.8011 617.11383l0 0c0 -23.665588 18.23294 -42.850403 40.724396 -42.850403l0 0c10.800781 0 21.15921 4.5145874 28.796509 12.550598c7.6372986 8.036011 11.927887 18.93518 11.927887 30.299805l0 0c0 23.66565 -18.23291 42.850403 -40.724396 42.850403l0 0c-22.491455 0 -40.724396 -19.184753 -40.724396 -42.850403z" fill-rule="evenodd"/><path fill="#00ffff" d="m107.66479 59.674313l0 0c0 -23.665619 18.23294 -42.850395 40.72442 -42.850395l0 0c10.800781 0 21.159195 4.5145817 28.796494 12.550589c7.637314 8.036007 11.927902 18.935173 11.927902 30.299805l0 0c0 23.665615 -18.232925 42.85039 -40.724396 42.85039l0 0c-22.491478 0 -40.72442 -19.184776 -40.72442 -42.85039z" fill-rule="evenodd"/><path stroke="#000000" stroke-width="12.0" stroke-linejoin="round" stroke-linecap="butt" d="m107.66479 59.674313l0 0c0 -23.665619 18.23294 -42.850395 40.72442 -42.850395l0 0c10.800781 0 21.159195 4.5145817 28.796494 12.550589c7.637314 8.036007 11.927902 18.935173 11.927902 30.299805l0 0c0 23.665615 -18.232925 42.85039 -40.724396 42.85039l0 0c-22.491478 0 -40.72442 -19.184776 -40.72442 -42.85039z" fill-rule="evenodd"/><path fill="#00ffff" d="m438.7995 248.95334l0 0c0 -23.665619 18.23291 -42.850388 40.724396 -42.850388l0 0c10.800781 0 21.15921 4.5145874 28.796509 12.550598c7.6372986 8.0359955 11.927887 18.935165 11.927887 30.29979l0 0c0 23.665619 -18.23294 42.850403 -40.724396 42.850403l0 0c-22.491486 0 -40.724396 -19.184784 -40.724396 -42.850403z" fill-rule="evenodd"/><path stroke="#000000" stroke-width="12.0" stroke-linejoin="round" stroke-linecap="butt" d="m438.7995 248.95334l0 0c0 -23.665619 18.23291 -42.850388 40.724396 -42.850388l0 0c10.800781 0 21.15921 4.5145874 28.796509 12.550598c7.6372986 8.0359955 11.927887 18.935165 11.927887 30.29979l0 0c0 23.665619 -18.23294 42.850403 -40.724396 42.850403l0 0c-22.491486 0 -40.724396 -19.184784 -40.724396 -42.850403z" fill-rule="evenodd"/><path fill="#00ffff" d="m107.6632 431.9989l0 0c0 -23.665619 18.232933 -42.850372 40.724403 -42.850372l0 0c10.800781 0 21.159195 4.514557 28.796509 12.550568c7.637314 8.036011 11.927902 18.93518 11.927902 30.299805l0 0c0 23.665619 -18.23294 42.850403 -40.72441 42.850403l0 0c-22.49147 0 -40.724403 -19.184784 -40.724403 -42.850403z" fill-rule="evenodd"/><path stroke="#000000" stroke-width="12.0" stroke-linejoin="round" stroke-linecap="butt" d="m107.6632 431.9989l0 0c0 -23.665619 18.232933 -42.850372 40.724403 -42.850372l0 0c10.800781 0 21.159195 4.514557 28.796509 12.550568c7.637314 8.036011 11.927902 18.93518 11.927902 30.299805l0 0c0 23.665619 -18.23294 42.850403 -40.72441 42.850403l0 0c-22.49147 0 -40.724403 -19.184784 -40.724403 -42.850403z" fill-rule="evenodd"/><path fill="#00ffff" d="m107.66524 804.32544l0 0c0 -23.665588 18.23294 -42.850403 40.72441 -42.850403l0 0c10.800781 0 21.159195 4.5145874 28.796509 12.550598c7.6372986 8.036011 11.927902 18.93518 11.927902 30.299805l0 0c0 23.66565 -18.23294 42.850403 -40.72441 42.850403l0 0c-22.49147 0 -40.72441 -19.184753 -40.72441 -42.850403z" fill-rule="evenodd"/><path stroke="#000000" stroke-width="12.0" stroke-linejoin="round" stroke-linecap="butt" d="m107.66524 804.32544l0 0c0 -23.665588 18.23294 -42.850403 40.72441 -42.850403l0 0c10.800781 0 21.159195 4.5145874 28.796509 12.550598c7.6372986 8.036011 11.927902 18.93518 11.927902 30.299805l0 0c0 23.66565 -18.23294 42.850403 -40.72441 42.850403l0 0c-22.49147 0 -40.72441 -19.184753 -40.72441 -42.850403z" fill-rule="evenodd"/><path fill="#00ffff" d="m763.9425 431.99942l0 0c0 -23.665619 18.232971 -42.850372 40.724426 -42.850372l0 0c10.800781 0 21.15918 4.514557 28.796509 12.550568c7.637329 8.036011 11.9279175 18.93518 11.9279175 30.299805l0 0c0 23.665619 -18.232971 42.850403 -40.724426 42.850403l0 0c-22.491455 0 -40.724426 -19.184784 -40.724426 -42.850403z" fill-rule="evenodd"/><path stroke="#000000" stroke-width="12.0" stroke-linejoin="round" stroke-linecap="butt" d="m763.9425 431.99942l0 0c0 -23.665619 18.232971 -42.850372 40.724426 -42.850372l0 0c10.800781 0 21.15918 4.514557 28.796509 12.550568c7.637329 8.036011 11.9279175 18.93518 11.9279175 30.299805l0 0c0 23.665619 -18.232971 42.850403 -40.724426 42.850403l0 0c-22.491455 0 -40.724426 -19.184784 -40.724426 -42.850403z" fill-rule="evenodd"/></g></svg>